<svg width="220" height="46" viewBox="0 0 220 46" fill="none" xmlns="http://www.w3.org/2000/svg">
<path d="M73.3479 18.4531C73.3479 20.2373 72.945 21.8297 72.1392 23.2302C71.3143 24.6307 70.144 25.7147 68.6283 26.4821C67.1127 27.2495 65.3189 27.6332 63.2469 27.6332H56.3402V37.3889H50.5558V9.67583H62.9879C66.3069 9.67583 68.8681 10.4432 70.6716 11.9781C72.4558 13.4937 73.3479 15.652 73.3479 18.4531ZM67.506 18.5682C67.506 15.652 65.7889 14.194 62.3547 14.194H56.3402V23.1727H62.4986C64.1102 23.1727 65.3476 22.7794 66.211 21.9928C67.0743 21.187 67.506 20.0455 67.506 18.5682ZM83.0748 12.2658H77.5495V8.20816H83.0748V12.2658ZM83.0748 37.3889H77.5495V16.1221H83.0748V37.3889ZM104.601 37.3889H87.5354V33.4751L97.5501 20.1222H88.3412V16.1221H103.651V20.0646L93.6939 33.36H104.601V37.3889ZM124.745 37.3889H107.68V33.4751L117.695 20.1222H108.486V16.1221H123.796V20.0646L113.838 33.36H124.745V37.3889ZM133.925 37.7918C131.873 37.7918 130.271 37.2355 129.119 36.1227C127.968 34.9908 127.393 33.408 127.393 31.3744C127.393 29.1681 128.112 27.4893 129.551 26.3382C130.971 25.1871 133.052 24.602 135.796 24.5828L140.372 24.4964V23.4029C140.372 22.0215 140.132 20.9951 139.652 20.3237C139.153 19.633 138.357 19.2876 137.264 19.2876C136.247 19.2876 135.499 19.5275 135.019 20.0071C134.539 20.4675 134.242 21.2349 134.127 22.3093L128.342 22.0215C128.707 19.9495 129.657 18.3859 131.191 17.3307C132.726 16.2564 134.827 15.7192 137.494 15.7192C140.18 15.7192 142.252 16.3811 143.71 17.7049C145.168 19.0286 145.897 20.9088 145.897 23.3453V31.1154C145.897 32.3048 146.031 33.1202 146.3 33.5615C146.568 34.0219 147.019 34.2521 147.652 34.2521C148.074 34.2521 148.477 34.2138 148.861 34.137V37.1299C148.535 37.2067 148.238 37.2738 147.969 37.3314C147.72 37.4081 147.461 37.4657 147.192 37.504C146.923 37.5424 146.645 37.5712 146.357 37.5904C146.07 37.6288 145.724 37.6479 145.321 37.6479C143.94 37.6479 142.914 37.3026 142.242 36.6119C141.59 35.9213 141.197 34.914 141.062 33.5903H140.947C139.393 36.3913 137.053 37.7918 133.925 37.7918ZM140.372 28.6405V27.5469L137.551 27.5757C136.266 27.6332 135.345 27.7771 134.789 28.0073C134.251 28.2376 133.849 28.5925 133.58 29.0721C133.292 29.5326 133.148 30.1561 133.148 30.9427C133.148 31.9595 133.379 32.7077 133.839 33.1874C134.319 33.6862 134.942 33.9356 135.71 33.9356C136.573 33.9356 137.36 33.6958 138.069 33.2161C138.798 32.7557 139.364 32.1034 139.767 31.2592C140.17 30.4343 140.372 29.5614 140.372 28.6405ZM173.898 29.4175C173.898 32.1226 172.9 34.1946 170.905 35.6335C168.89 37.0724 165.936 37.7918 162.041 37.7918C158.473 37.7918 155.681 37.1587 153.667 35.8925C151.653 34.6454 150.358 32.7461 149.782 30.1945L155.394 29.2448C155.758 30.7221 156.497 31.7868 157.61 32.4391C158.703 33.1106 160.228 33.4464 162.185 33.4464C166.233 33.4464 168.257 32.2089 168.257 29.734C168.257 28.9474 168.027 28.3047 167.567 27.8059C167.106 27.2879 166.454 26.8562 165.61 26.5109C164.766 26.1847 163.135 25.7723 160.718 25.2734C158.646 24.7938 157.207 24.4101 156.401 24.1223C155.595 23.8154 154.866 23.4604 154.214 23.0575C153.542 22.6738 152.976 22.1942 152.516 21.6187C152.055 21.0623 151.7 20.4004 151.451 19.633C151.202 18.8656 151.077 17.9926 151.077 17.0142C151.077 14.5201 152.017 12.6016 153.897 11.2586C155.777 9.93483 158.511 9.27294 162.099 9.27294C165.533 9.27294 168.113 9.81013 169.84 10.8845C171.567 11.9589 172.68 13.7335 173.178 16.2084L167.567 16.9854C167.279 15.7959 166.684 14.8942 165.782 14.2803C164.9 13.6856 163.634 13.3882 161.984 13.3882C158.473 13.3882 156.717 14.4913 156.717 16.6976C156.717 17.4075 156.9 17.9926 157.264 18.4531C157.648 18.9135 158.204 19.3068 158.933 19.633C159.682 19.9591 161.168 20.362 163.394 20.8417C166.061 21.398 167.97 21.916 169.121 22.3957C170.272 22.8753 171.183 23.4317 171.855 24.0648C172.526 24.6979 173.034 25.4653 173.38 26.367C173.725 27.2495 173.898 28.2663 173.898 29.4175ZM183.826 12.2658H178.301V8.20816H183.826V12.2658ZM183.826 37.3889H178.301V16.1221H183.826V37.3889ZM207.51 37.3889H202.014V25.4461C202.014 21.7242 200.939 19.8632 198.791 19.8632C197.678 19.8632 196.776 20.4292 196.086 21.5611C195.376 22.7122 195.021 24.1895 195.021 25.9929V37.3889H189.495V20.8704C189.495 19.7385 189.476 18.808 189.438 18.079C189.4 17.3499 189.361 16.6976 189.323 16.1221H194.618C194.656 16.3715 194.704 17.0334 194.762 18.1078C194.819 19.2013 194.848 19.9495 194.848 20.3524H194.934C195.625 18.7217 196.479 17.5418 197.496 16.8127C198.513 16.0645 199.731 15.6904 201.15 15.6904C204.393 15.6904 206.359 17.2444 207.05 20.3524H207.165C207.894 18.7025 208.767 17.513 209.784 16.784C210.781 16.0549 212.067 15.6904 213.64 15.6904C215.712 15.6904 217.285 16.4003 218.36 17.82C219.453 19.2205 220 21.2445 220 23.8921V37.3889H214.503V25.4461C214.503 21.7242 213.429 19.8632 211.28 19.8632C210.206 19.8632 209.323 20.3812 208.633 21.4172C207.942 22.4532 207.568 23.8921 207.51 25.7339V37.3889Z" fill="#FF5700"/>
<path d="M18.7779 0.812267C16.6686 0.812267 14.6406 1.16007 12.7481 1.80138L14.9067 8.16869L18.7779 19.5897L22.6491 8.16824L24.8077 1.80093C22.8653 1.14401 20.8284 0.81002 18.7779 0.812267V0.812267ZM19.049 9.44233C18.8113 9.44233 18.576 9.39553 18.3565 9.30459C18.137 9.21366 17.9375 9.08037 17.7695 8.91234C17.6014 8.74432 17.4682 8.54484 17.3772 8.32531C17.2863 8.10577 17.2395 7.87047 17.2395 7.63284C17.2395 7.39522 17.2863 7.15992 17.3772 6.94038C17.4682 6.72085 17.6014 6.52137 17.7695 6.35334C17.9375 6.18532 18.137 6.05203 18.3565 5.9611C18.576 5.87016 18.8113 5.82336 19.049 5.82336C19.5289 5.82336 19.9891 6.014 20.3285 6.35334C20.6678 6.69269 20.8585 7.15294 20.8585 7.63284C20.8585 8.11275 20.6678 8.573 20.3285 8.91234C19.9891 9.25169 19.5289 9.44233 19.049 9.44233V9.44233ZM22.4139 3.12035C20.018 2.59976 17.5382 2.59976 15.1423 3.12035L15.1141 2.9929C17.5286 2.46827 20.0277 2.46827 22.4422 2.9929L22.4139 3.12035Z" fill="#FF5700"/>
<path d="M24.8077 8.62196L22.6491 14.9888L18.7779 26.4103L14.9067 14.9888L12.7485 8.62286C5.33601 11.1347 0 18.1487 0 26.4103C0 36.7807 8.40747 45.1878 18.7779 45.1878C29.1483 45.1878 37.5558 36.7807 37.5558 26.4099C37.5558 18.1487 32.2203 11.1338 24.8077 8.62196V8.62196ZM24.3715 24.3926C24.8512 24.3926 25.3113 24.5832 25.6505 24.9224C25.9898 25.2616 26.1803 25.7217 26.1803 26.2014C26.1803 26.6811 25.9898 27.1412 25.6505 27.4804C25.3113 27.8196 24.8512 28.0102 24.3715 28.0102C23.8918 28.0102 23.4317 27.8196 23.0925 27.4804C22.7533 27.1412 22.5627 26.6811 22.5627 26.2014C22.5627 25.7217 22.7533 25.2616 23.0925 24.9224C23.4317 24.5832 23.8918 24.3926 24.3715 24.3926V24.3926ZM27.7288 21.436C27.4889 21.4398 27.2505 21.3957 27.0277 21.3065C26.8049 21.2172 26.6021 21.0845 26.431 20.9161C26.26 20.7477 26.1242 20.547 26.0315 20.3256C25.9388 20.1042 25.8911 19.8665 25.8911 19.6265C25.8911 19.3865 25.9389 19.1489 26.0317 18.9275C26.1244 18.7061 26.2603 18.5054 26.4314 18.3371C26.6024 18.1687 26.8053 18.0361 27.0281 17.9469C27.251 17.8577 27.4893 17.8137 27.7293 17.8175C28.2042 17.825 28.6571 18.019 28.9903 18.3575C29.3234 18.6961 29.5101 19.152 29.5101 19.627C29.51 20.1019 29.3232 20.5578 28.99 20.8963C28.6567 21.2347 28.2038 21.4286 27.7288 21.436V21.436ZM30.9183 28.4392C31.3982 28.4392 31.8585 28.6299 32.1978 28.9692C32.5372 29.3086 32.7278 29.7688 32.7278 30.2487C32.7278 30.7286 32.5372 31.1889 32.1978 31.5282C31.8585 31.8676 31.3982 32.0582 30.9183 32.0582C30.4384 32.0582 29.9782 31.8676 29.6388 31.5282C29.2995 31.1889 29.1088 30.7286 29.1088 30.2487C29.1088 29.7688 29.2995 29.3086 29.6388 28.9692C29.9782 28.6299 30.4384 28.4392 30.9183 28.4392V28.4392ZM23.9797 33.7272C24.4596 33.7272 24.9199 33.9179 25.2592 34.2572C25.5986 34.5966 25.7892 35.0568 25.7892 35.5367C25.7892 36.0166 25.5986 36.4769 25.2592 36.8162C24.9199 37.1556 24.4596 37.3462 23.9797 37.3462C23.4998 37.3462 23.0396 37.1556 22.7002 36.8162C22.3609 36.4769 22.1702 36.0166 22.1702 35.5367C22.1702 35.0568 22.3609 34.5966 22.7002 34.2572C23.0396 33.9179 23.4998 33.7272 23.9797 33.7272V33.7272ZM18.2636 37.9992C18.2637 38.2368 18.2169 38.4721 18.126 38.6916C18.0351 38.9112 17.9018 39.1107 17.7337 39.2787C17.5657 39.4467 17.3662 39.5799 17.1466 39.6708C16.9271 39.7616 16.6917 39.8083 16.4541 39.8082C15.9743 39.8082 15.5142 39.6176 15.1749 39.2784C14.8357 38.9391 14.6451 38.479 14.6451 37.9992C14.6451 37.5194 14.8357 37.0593 15.1749 36.72C15.5142 36.3807 15.9743 36.1901 16.4541 36.1901C16.9339 36.1901 17.3941 36.3807 17.7335 36.72C18.0728 37.0592 18.2635 37.5194 18.2636 37.9992V37.9992ZM15.4067 26.0935C15.6467 26.0897 15.885 26.1338 16.1078 26.223C16.3306 26.3123 16.5334 26.445 16.7045 26.6134C16.8755 26.7818 17.0113 26.9825 17.104 27.2039C17.1967 27.4253 17.2444 27.6629 17.2444 27.903C17.2444 28.143 17.1966 28.3806 17.1039 28.602C17.0111 28.8234 16.8752 29.0241 16.7042 29.1924C16.5331 29.3608 16.3302 29.4934 16.1074 29.5826C15.8846 29.6718 15.6462 29.7158 15.4062 29.712C14.9313 29.7045 14.4784 29.5105 14.1452 29.172C13.8121 28.8334 13.6254 28.3775 13.6254 27.9025C13.6255 27.4275 13.8123 26.9716 14.1456 26.6332C14.4788 26.2947 14.9317 26.1009 15.4067 26.0935V26.0935ZM12.4218 18.7595C12.4218 19.2393 12.2312 19.6995 11.8919 20.0388C11.5526 20.3781 11.0924 20.5687 10.6126 20.5687C10.1327 20.5687 9.67252 20.3781 9.33321 20.0388C8.99391 19.6995 8.80329 19.2393 8.80329 18.7595C8.81077 18.2846 9.00468 17.8316 9.34317 17.4984C9.68166 17.1652 10.1376 16.9785 10.6126 16.9785C11.0875 16.9785 11.5435 17.1652 11.8819 17.4984C12.2204 17.8316 12.4143 18.2846 12.4218 18.7595V18.7595ZM10.4292 34.3178C10.4292 34.7976 10.2386 35.2578 9.89937 35.597C9.56011 35.9363 9.09998 36.1269 8.62019 36.1269C8.1404 36.1269 7.68027 35.9363 7.34101 35.597C7.00175 35.2578 6.81115 34.7976 6.81115 34.3178C6.81115 33.838 7.00175 33.3779 7.34101 33.0386C7.68027 32.6994 8.1404 32.5088 8.62019 32.5088C9.09998 32.5088 9.56011 32.6994 9.89937 33.0386C10.2386 33.3779 10.4292 33.838 10.4292 34.3178V34.3178ZM18.7779 43.403C9.40825 43.403 1.7857 35.78 1.7857 26.4103C1.7857 19.8267 5.63579 13.7798 11.5947 11.0054L11.6499 11.1235C5.73677 13.8767 1.91585 19.8774 1.91585 26.4103C1.91585 35.7082 9.48005 43.2724 18.7779 43.2724C28.0753 43.2724 35.6395 35.7082 35.6395 26.4103C35.6395 19.8769 31.8186 13.8763 25.9063 11.123L25.9611 11.0045C31.92 13.7794 35.7701 19.8262 35.7701 26.4103C35.7701 35.78 28.1476 43.403 18.7779 43.403ZM6.68011 25.0958C6.68011 25.5757 6.48949 26.0359 6.15019 26.3752C5.81089 26.7145 5.35069 26.9051 4.87085 26.9051C4.391 26.9051 3.93081 26.7145 3.59151 26.3752C3.2522 26.0359 3.06159 25.5757 3.06159 25.0958C3.05781 24.8558 3.10181 24.6175 3.19104 24.3947C3.28027 24.1718 3.41293 23.969 3.58131 23.7979C3.74969 23.6269 3.95042 23.491 4.17181 23.3983C4.3932 23.3056 4.63082 23.2578 4.87085 23.2578C5.11087 23.2578 5.3485 23.3056 5.56988 23.3983C5.79127 23.491 5.992 23.6269 6.16038 23.7979C6.32876 23.969 6.46143 24.1718 6.55066 24.3947C6.63988 24.6175 6.68389 24.8558 6.68011 25.0958V25.0958Z" fill="#FF5700"/>
</svg>
